<svg width="726" height="798" viewBox="0 0 726 798" fill="none" xmlns="http://www.w3.org/2000/svg">
<path d="M0 798V0H388.951C604.748 0 686.156 99.6052 686.156 203.843C693.5 287.5 645.233 357.178 584.5 381.5C645.233 402.348 726 464.104 726 569.5C726 706.168 647.5 798 403.165 798H0Z" fill="#863BFF"/>
<path d="M446.045 455.048C461.555 454.277 464.545 462.827 468.995 475.371C489.695 479.841 505.565 484.628 521.305 500.163C551.965 530.405 554.015 590.724 522.545 621.046C494.785 647.788 457.48 649.21 421.5 649H376C385.17 632.68 392.585 614.955 397.335 596.849C410.185 549.076 403.665 529.785 355.255 516.631C351.505 515.612 349.025 513.947 347.065 510.536C344.345 489.67 427.895 457.691 446.045 455.048Z" fill="white"/>
<path d="M243.5 100.001C160.7 21.6007 46.6667 45.6674 0 67.5007V227.5C0 189.5 20 153 30 139.5C78 80.3 144.667 114.833 172 139.5C74.5 209 61.5 300 63 358.5C64.5 417 80 452 152.5 580.5C210.5 683.3 171.5 768.5 145 798H188.5C313 678 239 575.5 233.5 550.5C228 525.5 141.5 427.5 132 362C124.4 309.6 141.167 274.167 150.5 263C147 343 212.037 357.504 222 358.5C232 359.5 231.5 359.5 254.5 362C277.5 364.5 303.5 386.5 302 415C300.8 437.8 307.833 449.167 311.5 452C331.5 470 384 456 423 437.5C454.2 422.7 462.48 400.15 464.5 391C469.334 369.109 449.333 356.667 438 353C419.2 344.2 415.5 326.667 416 319C419.6 317.4 430.833 324.333 436 328C445.2 320.8 458.833 322.333 464.5 324C492.5 333.6 505.167 323.333 508 317C486.4 292.6 421.333 242.833 391.5 221C397.5 205 392 192 388.5 187.5C374.1 169.5 335.833 148 318.5 139.5C302.1 59.9 236.667 33.3333 206 30C238.8 60 244.667 89.1672 243.5 100.001Z" fill="white"/>
<path d="M496.5 366.5C482.834 380.167 460.5 413.2 480.5 436C489.167 422.167 504.5 388.9 496.5 366.5Z" fill="white"/>
<path d="M301.63 210.403C312.21 210.172 319.544 208.053 325.6 216.495C344.437 242.752 353.51 258.181 371.74 284.15C356.57 275.502 348.97 269.252 335.09 258.324C313.26 242.26 302.99 251.995 281.24 245.51C274.51 243.504 248.03 226.974 239 222.025C260.14 214.321 279.34 211.69 301.63 210.403Z" fill="#863BFF"/>
</svg>
